<svg version="1.0" preserveAspectRatio="xMidYMid meet" viewBox="314.24071991001125 285.11999753599997 806.6591676040495 218.69999811000002" zoomAndPan="magnify" xmlns:xlink="http://www.w3.org/1999/xlink" xmlns="http://www.w3.org/2000/svg" style="max-height: 500px" width="806.6591676040495" height="218.69999811000002"><defs><g/><clipPath id="b0407e275d"><path clip-rule="nonzero" d="M 12 804.328125 L 1440 804.328125 L 1440 810 L 12 810 Z M 12 804.328125"/></clipPath></defs><g fill-opacity="1" fill="#ffffff"><g transform="translate(321.645339, 478.89303)"><g><path d="M 0 0 C 3.863281 -5.144531 7.53125 -10.613281 11 -16.40625 C 14.46875 -22.195312 17.972656 -28.851562 21.515625 -36.375 C 25.054688 -43.90625 28.976562 -52.78125 33.28125 -63 C 37.59375 -73.226562 42.515625 -85.289062 48.046875 -99.1875 L 77.390625 -171.75 L 111.15625 -175.609375 C 111.15625 -173.679688 111.957031 -169.5 113.5625 -163.0625 C 115.175781 -156.632812 117.425781 -148.625 120.3125 -139.03125 C 123.207031 -129.445312 126.710938 -118.863281 130.828125 -107.28125 C 134.953125 -95.707031 139.554688 -83.648438 144.640625 -71.109375 C 149.722656 -58.566406 155.191406 -46.21875 161.046875 -34.0625 C 166.898438 -21.90625 173.039062 -10.550781 179.46875 0 L 110.578125 0 C 112.628906 -6.820312 113.207031 -15.3125 112.3125 -25.46875 C 111.414062 -35.632812 109.550781 -46.3125 106.71875 -57.5 L 40.328125 -57.5 C 37.503906 -44 37.410156 -32.742188 40.046875 -23.734375 C 42.679688 -14.734375 48.304688 -6.820312 56.921875 0 Z M 41.6875 -63.484375 L 105.171875 -63.484375 C 102.335938 -73.773438 98.988281 -83.875 95.125 -93.78125 C 91.269531 -103.6875 87.253906 -112.753906 83.078125 -120.984375 C 78.898438 -129.222656 74.75 -135.914062 70.625 -141.0625 L 54.609375 -101.125 C 51.785156 -93.914062 49.28125 -87.191406 47.09375 -80.953125 C 44.90625 -74.710938 43.101562 -68.890625 41.6875 -63.484375 Z M 41.6875 -63.484375"/></g></g></g><g fill-opacity="1" fill="#ffffff"><g transform="translate(495.688616, 478.89303)"><g><path d="M 156.5 0 L 0 0 C 7.84375 -10.550781 15.523438 -21.582031 23.046875 -33.09375 C 30.578125 -44.613281 37.65625 -55.96875 44.28125 -67.15625 C 50.914062 -78.351562 56.867188 -88.9375 62.140625 -98.90625 C 67.410156 -108.875 71.75 -117.6875 75.15625 -125.34375 C 78.570312 -133 80.726562 -138.882812 81.625 -143 C 80.59375 -150.976562 78.535156 -156.601562 75.453125 -159.875 C 72.367188 -163.15625 68.703125 -164.796875 64.453125 -164.796875 C 60.460938 -164.796875 56.117188 -163.570312 51.421875 -161.125 C 46.734375 -158.6875 42.039062 -155.441406 37.34375 -151.390625 C 32.644531 -147.335938 28.269531 -142.992188 24.21875 -138.359375 C 20.164062 -133.734375 16.691406 -129.132812 13.796875 -124.5625 C 10.898438 -120 8.9375 -116.046875 7.90625 -112.703125 C 7.394531 -119.773438 6.847656 -126.269531 6.265625 -132.1875 C 5.691406 -138.101562 4.953125 -144.179688 4.046875 -150.421875 C 3.148438 -156.660156 1.800781 -163.769531 0 -171.75 L 156.5 -171.75 L 156.5 -171.5625 C 149.550781 -161.90625 142.347656 -151.285156 134.890625 -139.703125 C 127.429688 -128.128906 120.035156 -116.070312 112.703125 -103.53125 C 105.367188 -90.988281 98.453125 -78.378906 91.953125 -65.703125 C 85.453125 -53.035156 79.757812 -40.785156 74.875 -28.953125 C 75.90625 -21.097656 77.960938 -15.5 81.046875 -12.15625 C 84.140625 -8.8125 87.804688 -7.140625 92.046875 -7.140625 C 96.160156 -7.140625 100.535156 -8.359375 105.171875 -10.796875 C 109.804688 -13.242188 114.46875 -16.492188 119.15625 -20.546875 C 123.851562 -24.597656 128.226562 -28.941406 132.28125 -33.578125 C 136.332031 -38.210938 139.804688 -42.78125 142.703125 -47.28125 C 145.597656 -51.78125 147.5625 -55.703125 148.59375 -59.046875 C 149.238281 -52.097656 149.816406 -45.632812 150.328125 -39.65625 C 150.847656 -33.675781 151.585938 -27.566406 152.546875 -21.328125 C 153.515625 -15.085938 154.832031 -7.976562 156.5 0 Z M 156.5 0"/></g></g></g><g fill-opacity="1" fill="#ffffff"><g transform="translate(652.173202, 478.89303)"><g><path d="M 11.578125 -67.15625 C 11.578125 -80.144531 11.414062 -91.59375 11.09375 -101.5 C 10.769531 -111.40625 10.253906 -120.347656 9.546875 -128.328125 C 8.835938 -136.304688 7.9375 -143.800781 6.84375 -150.8125 C 5.75 -157.820312 4.429688 -164.800781 2.890625 -171.75 L 57.5 -171.75 C 56.09375 -165.1875 54.84375 -158.5625 53.75 -151.875 C 52.65625 -145.1875 51.753906 -137.914062 51.046875 -130.0625 C 50.335938 -122.21875 49.789062 -113.242188 49.40625 -103.140625 C 49.019531 -93.046875 48.828125 -81.242188 48.828125 -67.734375 C 48.828125 -53.453125 51.015625 -41.742188 55.390625 -32.609375 C 59.765625 -23.472656 65.296875 -16.6875 71.984375 -12.25 C 78.671875 -7.8125 85.550781 -5.59375 92.625 -5.59375 C 100.601562 -5.59375 107.226562 -7.585938 112.5 -11.578125 C 117.78125 -15.566406 121.992188 -20.710938 125.140625 -27.015625 C 128.296875 -33.316406 130.546875 -40.070312 131.890625 -47.28125 C 133.242188 -54.488281 133.921875 -61.304688 133.921875 -67.734375 C 133.921875 -84.203125 133.273438 -98.222656 131.984375 -109.796875 C 130.703125 -121.378906 128.867188 -131.160156 126.484375 -139.140625 C 124.109375 -147.117188 121.21875 -153.679688 117.8125 -158.828125 C 114.40625 -163.972656 110.515625 -168.28125 106.140625 -171.75 L 156.3125 -171.75 C 154.382812 -169.050781 152.582031 -166.09375 150.90625 -162.875 C 149.238281 -159.65625 147.695312 -155.632812 146.28125 -150.8125 C 144.863281 -145.988281 143.640625 -139.972656 142.609375 -132.765625 C 141.578125 -125.566406 140.800781 -116.660156 140.28125 -106.046875 C 139.769531 -95.429688 139.515625 -82.660156 139.515625 -67.734375 C 139.515625 -58.335938 138.484375 -49.328125 136.421875 -40.703125 C 134.367188 -32.085938 130.992188 -24.4375 126.296875 -17.75 C 121.609375 -11.0625 115.335938 -5.785156 107.484375 -1.921875 C 99.640625 1.929688 89.925781 3.859375 78.34375 3.859375 C 70.113281 3.859375 62.039062 2.316406 54.125 -0.765625 C 46.21875 -3.859375 39.046875 -8.425781 32.609375 -14.46875 C 26.179688 -20.519531 21.066406 -27.953125 17.265625 -36.765625 C 13.472656 -45.578125 11.578125 -55.707031 11.578125 -67.15625 Z M 11.578125 -67.15625"/></g></g></g><g fill-opacity="1" fill="#ffffff"><g transform="translate(810.394362, 478.89303)"><g><path d="M 60.40625 0 L 5.796875 0 C 8.753906 -13.125 10.972656 -26.984375 12.453125 -41.578125 C 13.929688 -56.179688 14.671875 -70.945312 14.671875 -85.875 C 14.671875 -100.800781 13.960938 -115.5625 12.546875 -130.15625 C 11.128906 -144.757812 8.941406 -158.625 5.984375 -171.75 L 74.6875 -171.75 C 90.507812 -171.75 103.921875 -169.882812 114.921875 -166.15625 C 125.921875 -162.425781 134.570312 -157.566406 140.875 -151.578125 C 147.175781 -145.597656 151.195312 -139.070312 152.9375 -132 C 154.675781 -124.925781 154.097656 -117.914062 151.203125 -110.96875 C 148.304688 -104.019531 143.191406 -97.742188 135.859375 -92.140625 C 128.523438 -86.546875 118.941406 -82.269531 107.109375 -79.3125 C 110.835938 -72.238281 114.890625 -64.84375 119.265625 -57.125 C 123.640625 -49.40625 128.207031 -41.910156 132.96875 -34.640625 C 137.726562 -27.367188 142.390625 -20.707031 146.953125 -14.65625 C 151.515625 -8.613281 155.726562 -3.726562 159.59375 0 L 91.671875 0 C 92.179688 -5.914062 91.789062 -12.957031 90.5 -21.125 C 89.21875 -29.300781 86.96875 -38.082031 83.75 -47.46875 C 80.53125 -56.863281 76.222656 -66.191406 70.828125 -75.453125 L 51.90625 -75.453125 C 52.039062 -66.453125 52.523438 -57.347656 53.359375 -48.140625 C 54.191406 -38.941406 55.25 -30.191406 56.53125 -21.890625 C 57.820312 -13.597656 59.113281 -6.300781 60.40625 0 Z M 51.71875 -82.40625 L 70.25 -82.40625 C 80.664062 -82.40625 89.21875 -84.625 95.90625 -89.0625 C 102.59375 -93.5 107.222656 -99.546875 109.796875 -107.203125 C 112.367188 -114.859375 112.691406 -123.445312 110.765625 -132.96875 C 109.734375 -137.851562 108.023438 -142.769531 105.640625 -147.71875 C 103.265625 -152.675781 100.113281 -156.828125 96.1875 -160.171875 C 92.269531 -163.515625 87.414062 -165.1875 81.625 -165.1875 C 75.582031 -165.1875 70.628906 -162.804688 66.765625 -158.046875 C 62.910156 -153.285156 59.890625 -146.914062 57.703125 -138.9375 C 55.515625 -130.96875 53.96875 -122.09375 53.0625 -112.3125 C 52.164062 -102.53125 51.71875 -92.5625 51.71875 -82.40625 Z M 51.71875 -82.40625"/></g></g></g><g fill-opacity="1" fill="#ffffff"><g transform="translate(968.808472, 478.89303)"><g><path d="M 5.796875 0 C 8.753906 -13.125 10.972656 -26.984375 12.453125 -41.578125 C 13.929688 -56.179688 14.671875 -70.945312 14.671875 -85.875 C 14.671875 -100.800781 13.929688 -115.5625 12.453125 -130.15625 C 10.972656 -144.757812 8.753906 -158.625 5.796875 -171.75 L 145.703125 -171.75 C 144.285156 -165.0625 143.0625 -158.691406 142.03125 -152.640625 C 141 -146.597656 140.160156 -140.359375 139.515625 -133.921875 C 138.878906 -127.492188 138.300781 -120.421875 137.78125 -112.703125 C 134.1875 -124.921875 128.429688 -134.953125 120.515625 -142.796875 C 112.597656 -150.648438 103.363281 -156.472656 92.8125 -160.265625 C 82.269531 -164.066406 71.082031 -165.96875 59.25 -165.96875 C 57.1875 -155.414062 55.507812 -144.1875 54.21875 -132.28125 C 52.9375 -120.382812 52.164062 -106.910156 51.90625 -91.859375 C 51.90625 -89.796875 52.875 -88.765625 54.8125 -88.765625 L 69.09375 -88.765625 C 75.007812 -88.765625 80.441406 -89.503906 85.390625 -90.984375 C 90.347656 -92.460938 95.207031 -95.128906 99.96875 -98.984375 C 104.726562 -102.847656 109.613281 -108.382812 114.625 -115.59375 C 114.113281 -107.875 113.757812 -100.988281 113.5625 -94.9375 C 113.375 -88.894531 113.375 -82.878906 113.5625 -76.890625 C 113.757812 -70.910156 114.113281 -64 114.625 -56.15625 C 109.738281 -63.226562 104.882812 -68.691406 100.0625 -72.546875 C 95.238281 -76.410156 90.316406 -79.113281 85.296875 -80.65625 C 80.273438 -82.207031 74.875 -82.984375 69.09375 -82.984375 L 54.8125 -82.984375 C 52.75 -82.984375 51.71875 -82.015625 51.71875 -80.078125 C 51.71875 -69.148438 52.359375 -57.1875 53.640625 -44.1875 C 54.929688 -31.195312 56.800781 -18.398438 59.25 -5.796875 C 70.957031 -5.796875 82.113281 -7.722656 92.71875 -11.578125 C 103.332031 -15.441406 112.597656 -21.296875 120.515625 -29.140625 C 128.429688 -36.984375 134.1875 -46.953125 137.78125 -59.046875 C 138.300781 -51.328125 138.878906 -44.25 139.515625 -37.8125 C 140.160156 -31.382812 141 -25.144531 142.03125 -19.09375 C 143.0625 -13.050781 144.285156 -6.6875 145.703125 0 Z M 5.796875 0"/></g></g></g><g clip-path="url(#b0407e275d)"><path fill-rule="nonzero" fill-opacity="1" d="M 12 804.328125 L 1451.964844 804.328125 L 1451.964844 885.328125 L 12 885.328125 Z M 12 804.328125" fill="#bf9d72"/></g></svg>